<?xml version="1.0" encoding="utf-8"?>
<!-- Generator: Adobe Illustrator 21.1.0, SVG Export Plug-In . SVG Version: 6.00 Build 0)  -->
<svg version="1.1" id="Layer_1" xmlns="http://www.w3.org/2000/svg" xmlns:xlink="http://www.w3.org/1999/xlink" x="0px" y="0px"
	 viewBox="0 0 300 56" style="enable-background:new 0 0 300 56;" xml:space="preserve">
<style type="text/css">
	.st0{fill:#FFFFFF;}
	.st1{fill:#65B22E;}
	.st2{opacity:0.6;fill:url(#SVGID_1_);enable-background:new    ;}
</style>
<path class="st0" d="M15.1,10.5v21.1H8.6V10.5H2.2V5h19.2v5.5C21.4,10.5,15.1,10.5,15.1,10.5z"/>
<path class="st0" d="M31.1,34.4c-0.4,1-0.8,1.8-1.3,2.6s-1,1.4-1.7,2c-0.6,0.5-1.4,0.9-2.3,1.2s-1.9,0.4-3.1,0.4
	c-0.6,0-1.2,0-1.8-0.1c-0.6-0.1-1.1-0.2-1.6-0.3L20,35c0.3,0.1,0.6,0.2,1,0.2c0.4,0.1,0.7,0.1,1,0.1c1,0,1.6-0.2,2.1-0.7
	c0.4-0.4,0.8-1.1,1.1-1.9l0.6-1.5L18,12.8h7l4.2,12h0.1l3.7-12h6.5L31.1,34.4z M53.3,18c-0.3-0.1-0.5-0.1-0.8-0.2h-0.8
	c-0.8,0-1.5,0.2-2.1,0.4c-0.6,0.3-1,0.7-1.4,1.1c-0.3,0.4-0.6,0.9-0.7,1.4c-0.2,0.5-0.2,0.9-0.2,1.3v9.6h-6.2V12.9H47v2.7h0.1
	c0.5-1,1.2-1.7,2-2.3c0.9-0.6,1.9-0.9,3-0.9h0.7c0.2,0,0.4,0.1,0.6,0.1L53.3,18z M73.6,22.5V24H60c0,0.5,0.2,1,0.5,1.4
	s0.6,0.8,1,1.1c0.4,0.3,0.9,0.6,1.4,0.7c0.5,0.2,1,0.3,1.6,0.3c1,0,1.8-0.2,2.5-0.5c0.7-0.4,1.2-0.8,1.7-1.4l4.3,2.7
	c-0.9,1.3-2,2.3-3.5,2.9c-1.4,0.7-3.1,1-5,1c-1.4,0-2.7-0.2-4-0.7c-1.3-0.4-2.3-1.1-3.3-1.9c-0.9-0.8-1.7-1.9-2.2-3.1
	s-0.8-2.6-0.8-4.2c0-1.5,0.3-2.9,0.8-4.2s1.2-2.3,2.1-3.2c0.9-0.9,2-1.5,3.2-2s2.6-0.7,4-0.7c1.4,0,2.6,0.2,3.8,0.7
	c1.2,0.5,2.1,1.1,3,2c0.8,0.9,1.5,1.9,1.9,3.2C73.3,19.5,73.6,20.9,73.6,22.5z M67.9,20.1c0-1-0.3-1.8-0.9-2.5s-1.5-1.1-2.8-1.1
	c-0.6,0-1.2,0.1-1.7,0.3c-0.5,0.2-0.9,0.4-1.3,0.8c-0.4,0.3-0.7,0.7-0.9,1.1s-0.4,0.9-0.4,1.4C59.9,20.1,67.9,20.1,67.9,20.1z
	 M87.4,18.4c-0.5-0.5-1.1-0.9-1.8-1.2c-0.7-0.3-1.4-0.5-2.1-0.5c-0.6,0-1.1,0.1-1.6,0.3c-0.5,0.2-0.7,0.6-0.7,1.2
	c0,0.5,0.3,0.9,0.8,1.1s1.4,0.5,2.6,0.8l2.1,0.6c0.7,0.3,1.4,0.6,1.9,1.1c0.6,0.5,1,1,1.4,1.7s0.5,1.4,0.5,2.3c0,1.2-0.2,2.2-0.7,3
	s-1.1,1.5-1.9,2s-1.6,0.9-2.6,1.1c-1,0.2-1.9,0.3-2.9,0.3c-1.5,0-3-0.2-4.5-0.7s-2.7-1.2-3.7-2.2l3.5-3.6c0.6,0.6,1.2,1.1,2,1.5
	s1.7,0.6,2.6,0.6c0.5,0,1-0.1,1.5-0.4c0.5-0.2,0.7-0.7,0.7-1.3c0-0.6-0.3-1-0.9-1.3s-1.5-0.6-2.8-0.9c-0.7-0.2-1.3-0.4-2-0.6
	c-0.7-0.3-1.2-0.6-1.7-1s-0.9-1-1.3-1.6c-0.3-0.6-0.5-1.4-0.5-2.3c0-1.1,0.2-2.1,0.7-2.9c0.5-0.8,1.1-1.4,1.8-1.9
	c0.8-0.5,1.6-0.9,2.5-1.1c0.9-0.2,1.8-0.4,2.7-0.4c1.4,0,2.8,0.2,4.1,0.7c1.3,0.4,2.5,1.1,3.4,2C90.5,14.8,87.4,18.4,87.4,18.4z
	 M138.8,31.6V21.4c0-0.5,0-1-0.1-1.5s-0.2-0.9-0.4-1.3s-0.5-0.7-0.8-0.9c-0.4-0.2-0.8-0.3-1.4-0.3c-0.6,0-1,0.1-1.4,0.3
	c-0.4,0.2-0.8,0.5-1,0.9c-0.3,0.4-0.5,0.8-0.6,1.3s-0.2,1-0.2,1.5v10.1h-6.2V12.9h6v2.6h0.1c0.2-0.4,0.5-0.8,0.9-1.2s0.8-0.7,1.3-1
	s1-0.5,1.6-0.7s1.2-0.3,1.8-0.3c1.3,0,2.3,0.2,3.2,0.7s1.6,1,2.1,1.7s0.9,1.5,1.2,2.5c0.2,0.9,0.4,1.9,0.4,2.8v11.6L138.8,31.6
	L138.8,31.6z M156.8,10.5v21.1h-6.4V10.5H144V5h19.2v5.5C163.2,10.5,156.8,10.5,156.8,10.5z M177.3,31.6V21.5c0-0.5,0-1-0.1-1.5
	s-0.2-0.9-0.4-1.3s-0.5-0.7-0.8-0.9c-0.4-0.2-0.8-0.3-1.4-0.3c-1.1,0-1.9,0.4-2.5,1.1c-0.6,0.8-0.9,1.7-0.9,2.8v10.1H165V5h6.2v10.3
	h0.1c0.4-0.8,1.1-1.4,2-2s2-0.9,3.3-0.9s2.3,0.2,3.2,0.7s1.6,1,2.1,1.7s0.9,1.5,1.2,2.5c0.2,0.9,0.4,1.9,0.4,2.8v11.6h-6.2V31.6z
	 M205.1,22.5V24h-13.6c0,0.5,0.2,1,0.5,1.4s0.6,0.8,1,1.1c0.4,0.3,0.9,0.6,1.4,0.7c0.5,0.2,1,0.3,1.6,0.3c1,0,1.8-0.2,2.5-0.5
	c0.7-0.4,1.2-0.8,1.7-1.4l4.3,2.7c-0.9,1.3-2,2.3-3.5,2.9c-1.4,0.7-3.1,1-5,1c-1.4,0-2.7-0.2-4-0.7c-1.3-0.4-2.3-1.1-3.3-1.9
	c-0.9-0.8-1.7-1.9-2.2-3.1s-0.8-2.6-0.8-4.2c0-1.5,0.3-2.9,0.8-4.2c0.5-1.2,1.2-2.3,2.1-3.2c0.9-0.9,2-1.5,3.2-2s2.6-0.7,4-0.7
	s2.6,0.2,3.8,0.7s2.1,1.1,3,2c0.8,0.9,1.5,1.9,1.9,3.2C204.8,19.5,205.1,20.9,205.1,22.5z M199.4,20.1c0-1-0.3-1.8-0.9-2.5
	c-0.6-0.7-1.5-1.1-2.8-1.1c-0.6,0-1.2,0.1-1.7,0.3c-0.5,0.2-0.9,0.4-1.3,0.8c-0.4,0.3-0.7,0.7-0.9,1.1s-0.4,0.9-0.4,1.4L199.4,20.1
	L199.4,20.1z M230.9,18.3c0,2.3-0.4,4.3-1.3,6c-0.9,1.7-2,3.1-3.4,4.2s-3,1.9-4.8,2.4s-3.6,0.8-5.4,0.8h-8V5h7.7
	c1.9,0,3.7,0.2,5.6,0.7c1.8,0.4,3.5,1.2,4.9,2.2s2.6,2.4,3.5,4.1C230.5,13.6,230.9,15.7,230.9,18.3z M224.2,18.3
	c0-1.5-0.2-2.7-0.7-3.7s-1.1-1.8-2-2.4c-0.8-0.6-1.7-1-2.8-1.3c-1-0.2-2.1-0.4-3.2-0.4h-1.3v15.6h1.2c1.2,0,2.3-0.1,3.3-0.4
	c1.1-0.3,2-0.7,2.8-1.3c0.8-0.6,1.5-1.4,2-2.4S224.2,19.7,224.2,18.3z M245.7,18c-0.3-0.1-0.5-0.1-0.8-0.2h-0.8
	c-0.8,0-1.5,0.2-2.1,0.4c-0.6,0.3-1,0.7-1.4,1.1c-0.3,0.4-0.6,0.9-0.7,1.4c-0.2,0.5-0.2,0.9-0.2,1.3v9.6h-6.2V12.9h5.9v2.7h0.1
	c0.5-1,1.2-1.7,2-2.3c0.9-0.6,1.9-0.9,3-0.9h0.7c0.2,0,0.4,0.1,0.6,0.1L245.7,18z M269.7,31.6H263l-7.4-18.7h6.8l3.9,12.1h0.1
	l3.9-12.1h6.6L269.7,31.6L269.7,31.6z M296,22.5V24h-13.6c0,0.5,0.2,1,0.5,1.4s0.6,0.8,1,1.1c0.4,0.3,0.9,0.6,1.4,0.7
	c0.5,0.2,1,0.3,1.6,0.3c1,0,1.8-0.2,2.5-0.5c0.7-0.4,1.2-0.8,1.7-1.4l4.3,2.7c-0.9,1.3-2,2.3-3.5,2.9c-1.4,0.7-3.1,1-5,1
	c-1.4,0-2.7-0.2-4-0.7c-1.3-0.4-2.3-1.1-3.3-1.9c-0.9-0.8-1.7-1.9-2.2-3.1s-0.8-2.6-0.8-4.2c0-1.5,0.3-2.9,0.8-4.2s1.2-2.3,2.1-3.2
	s2-1.5,3.2-2s2.6-0.7,4-0.7s2.6,0.2,3.8,0.7c1.2,0.5,2.1,1.1,3,2c0.8,0.9,1.5,1.9,1.9,3.2C295.8,19.5,296,20.9,296,22.5z
	 M290.3,20.1c0-1-0.3-1.8-0.9-2.5s-1.5-1.1-2.8-1.1c-0.6,0-1.2,0.1-1.7,0.3c-0.5,0.2-0.9,0.4-1.3,0.8c-0.4,0.3-0.7,0.7-0.9,1.1
	c-0.2,0.4-0.4,0.9-0.4,1.4L290.3,20.1L290.3,20.1z M247.8,31.6V12.9h6.2v18.7H247.8z M250.8,4.3c-1.8,0-3.3,1.5-3.3,3.3
	s1.5,3.3,3.3,3.3s3.3-1.5,3.3-3.3S252.6,4.3,250.8,4.3z"/>
<path class="st1" d="M246.6,49.4c0,0.4-0.1,0.7-0.4,1c-0.3,0.3-0.6,0.4-1,0.4s-0.8-0.1-1-0.4c-0.3-0.3-0.4-0.6-0.4-1s0.1-0.7,0.4-1
	c0.3-0.3,0.6-0.4,1-0.4s0.8,0.1,1,0.4C246.5,48.7,246.6,49,246.6,49.4z M257.9,41.1c-0.3-0.5-0.7-0.9-1.3-1.2
	c-0.6-0.3-1.2-0.5-1.9-0.5s-1.4,0.1-1.9,0.4c-0.6,0.3-1.1,0.6-1.5,1.1c-0.4,0.4-0.7,1-0.9,1.6s-0.3,1.3-0.3,2s0.1,1.4,0.3,1.9
	c0.2,0.6,0.5,1.1,0.9,1.6c0.4,0.4,0.9,0.8,1.5,1.1s1.2,0.4,1.9,0.4c0.8,0,1.5-0.1,2-0.4c0.5-0.3,1-0.7,1.3-1.2l1.3,1
	c-0.5,0.6-1.2,1.2-1.9,1.6c-0.8,0.4-1.7,0.6-2.7,0.6s-1.9-0.2-2.7-0.5s-1.5-0.8-2.1-1.4c-0.6-0.6-1-1.3-1.3-2.1s-0.5-1.6-0.5-2.6
	c0-0.9,0.2-1.8,0.5-2.6s0.8-1.5,1.3-2.1c0.6-0.6,1.3-1,2.1-1.4c0.8-0.3,1.7-0.5,2.7-0.5c0.8,0,1.7,0.2,2.5,0.5
	c0.9,0.4,1.5,0.9,2.1,1.6L257.9,41.1L257.9,41.1z M274.1,44.5c0,0.9-0.2,1.8-0.5,2.6s-0.8,1.5-1.4,2.1s-1.3,1-2.1,1.4
	c-0.8,0.3-1.7,0.5-2.7,0.5c-0.9,0-1.8-0.2-2.6-0.5s-1.5-0.8-2.1-1.4c-0.6-0.6-1-1.3-1.4-2.1c-0.3-0.8-0.5-1.6-0.5-2.6
	c0-0.9,0.2-1.8,0.5-2.6s0.8-1.5,1.4-2.1s1.3-1,2.1-1.4c0.8-0.3,1.7-0.5,2.6-0.5c1,0,1.8,0.2,2.7,0.5c0.8,0.3,1.5,0.8,2.1,1.4
	c0.6,0.6,1,1.3,1.4,2.1C273.9,42.7,274.1,43.5,274.1,44.5z M272.2,44.5c0-0.7-0.1-1.3-0.3-1.9c-0.2-0.6-0.5-1.1-0.9-1.6
	c-0.4-0.4-0.9-0.8-1.5-1.1s-1.2-0.4-1.9-0.4s-1.4,0.1-1.9,0.4c-0.6,0.3-1.1,0.6-1.5,1.1c-0.4,0.4-0.7,1-0.9,1.6
	c-0.2,0.6-0.3,1.2-0.3,1.9s0.1,1.3,0.3,1.9c0.2,0.6,0.5,1.1,0.9,1.6c0.4,0.4,0.9,0.8,1.5,1.1s1.2,0.4,1.9,0.4s1.4-0.1,1.9-0.4
	c0.6-0.3,1.1-0.6,1.5-1.1c0.4-0.4,0.7-1,0.9-1.6C272.1,45.8,272.2,45.1,272.2,44.5z M280.3,38.7c0.7-0.4,1.5-0.7,2.4-0.7
	c0.3,0,0.7,0,1,0.1c0.4,0.1,0.7,0.2,1.1,0.4c0.3,0.2,0.7,0.5,0.9,0.8c0.3,0.3,0.5,0.8,0.7,1.3c0.4-0.8,1-1.5,1.7-1.9
	s1.6-0.7,2.6-0.7c1.6,0,2.7,0.5,3.5,1.4s1.2,2.2,1.2,3.7v7.5h-1.8v-6.8c0-1.3-0.2-2.3-0.7-3.1s-1.3-1.2-2.5-1.2
	c-0.6,0-1.2,0.1-1.6,0.4c-0.4,0.3-0.8,0.6-1.1,1c-0.3,0.4-0.5,0.9-0.6,1.5c-0.1,0.5-0.2,1.1-0.2,1.7v6.5h-1.8v-7.2
	c0-0.6,0-1.1-0.1-1.6s-0.2-0.9-0.5-1.2c-0.2-0.3-0.5-0.6-0.9-0.8s-0.9-0.3-1.5-0.3c-0.4,0-0.8,0.1-1.3,0.3c-0.4,0.2-0.8,0.5-1.2,0.9
	c-0.3,0.4-0.6,0.9-0.8,1.5c-0.2,0.6-0.3,1.3-0.3,2.1v6.3h-1.8V39.7c0-0.5,0-1-0.1-1.4h1.7c0,0.3,0.1,0.7,0.1,1.1v1h0.1
	C279,39.7,279.6,39.1,280.3,38.7L280.3,38.7z"/>
<linearGradient id="SVGID_1_" gradientUnits="userSpaceOnUse" x1="119.9" y1="7.4" x2="119.9" y2="26.3" gradientTransform="matrix(1 0 0 -1 0 58)">
	<stop  offset="0" style="stop-color:#303B45"/>
	<stop  offset="1" style="stop-color:#FFFFFF;stop-opacity:0"/>
</linearGradient>
<path class="st2" d="M108.2,50.6V31.7h23.4L108.2,50.6z"/>
<path class="st1" d="M124.4,18.3c0-8.9-7.2-16.1-16.1-16.1S92.2,9.4,92.2,18.3c0,3.1,0.9,6,2.4,8.5l13.8,23.8L122,26.8
	C123.5,24.3,124.4,21.4,124.4,18.3z"/>
<path class="st0" d="M122.2,18.3c0,7.7-6.3,14-14,14s-14-6.3-14-14s6.3-14,14-14S122.2,10.6,122.2,18.3z M108.2,10.1
	c-4.5,0-8.2,3.7-8.2,8.2s3.7,8.2,8.2,8.2s8.2-3.7,8.2-8.2S112.7,10.1,108.2,10.1z"/>
</svg>
